<svg width="1074" height="471" fill="none" xmlns="http://www.w3.org/2000/svg"><path d="M935.494.813l-1.146 6.16c-.375 2.006-1.979 3.561-3.999 3.93l-6.27 1.125c-1.104.205-1.104 1.76 0 1.944l6.27 1.126c2.041.368 3.624 1.944 3.999 3.929l1.146 6.16c.208 1.084 1.791 1.084 1.979 0l1.145-6.16c.375-2.006 1.979-3.561 4-3.93l6.269-1.125c1.104-.205 1.104-1.76 0-1.944l-6.269-1.126c-2.042-.368-3.625-1.944-4-3.929l-1.145-6.16c-.209-1.084-1.792-1.084-1.979 0z" fill="url(#paint0_linear_59_8353)"/><path d="M754.539 33.25l-.39 1.896c-.128.617-.673 1.095-1.36 1.209l-2.132.346c-.376.063-.376.541 0 .598l2.132.346c.694.114 1.232.599 1.36 1.21l.39 1.895c.07.333.609.333.672 0l.39-1.896c.128-.617.673-1.095 1.36-1.209l2.132-.346c.376-.063.376-.541 0-.598l-2.132-.346c-.694-.114-1.232-.599-1.36-1.21l-.39-1.895c-.07-.333-.609-.333-.672 0z" fill="url(#paint1_linear_59_8353)"/><path d="M855.611 98.933l-1.3 7.067c-.426 2.301-2.246 4.086-4.539 4.508l-7.117 1.291c-1.253.235-1.253 2.02 0 2.231l7.117 1.291a5.648 5.648 0 014.539 4.508l1.3 7.067c.237 1.245 2.034 1.245 2.246 0l1.301-7.067c.425-2.301 2.246-4.085 4.539-4.508l7.117-1.291c1.253-.235 1.253-2.019 0-2.231l-7.117-1.291a5.644 5.644 0 01-4.539-4.508l-1.301-7.067c-.236-1.244-2.033-1.244-2.246 0z" fill="url(#paint2_linear_59_8353)"/><path opacity=".6" d="M1007.12 63.905l-1.31 6.86c-.43 2.229-2.25 3.975-4.57 4.385l-7.155 1.262c-1.259.223-1.259 1.953 0 2.176l7.155 1.262c2.32.411 4.14 2.156 4.57 4.386l1.31 6.859c.24 1.207 2.04 1.207 2.27 0l1.32-6.86c.43-2.229 2.25-3.975 4.57-4.385l7.15-1.262c1.26-.223 1.26-1.953 0-2.176l-7.15-1.262c-2.32-.411-4.14-2.156-4.57-4.386l-1.32-6.859c-.23-1.207-2.03-1.207-2.27 0z" fill="url(#paint3_linear_59_8353)"/><path opacity=".6" d="M257.805 433.217l-1.771 9.225c-.575 2.998-3.022 5.347-6.148 5.897l-9.617 1.698c-1.692.299-1.692 2.627 0 2.926l9.617 1.698c3.126.552 5.575 2.899 6.148 5.897l1.771 9.225c.312 1.623 2.738 1.623 3.05 0l1.77-9.225c.576-2.998 3.022-5.347 6.148-5.897l9.617-1.698c1.693-.299 1.693-2.627 0-2.926l-9.617-1.698c-3.126-.552-5.574-2.899-6.148-5.897l-1.77-9.225c-.312-1.623-2.738-1.623-3.05 0z" fill="url(#paint4_linear_59_8353)"/><path opacity=".6" d="M701.162 404.593l-.827 4.494a3.58 3.58 0 01-2.873 2.873l-4.494.827c-.791.146-.791 1.28 0 1.426l4.494.827a3.58 3.58 0 012.873 2.873l.827 4.494c.146.791 1.28.791 1.426 0l.827-4.494a3.58 3.58 0 012.873-2.873l4.494-.827c.791-.146.791-1.28 0-1.426l-4.494-.827a3.58 3.58 0 01-2.873-2.873l-.827-4.494c-.146-.791-1.28-.791-1.426 0z" fill="url(#paint5_linear_59_8353)"/><path d="M6.276 219.375l-.53 2.843a2.284 2.284 0 01-1.845 1.814l-2.894.519c-.51.095-.51.813 0 .898l2.894.519c.942.17 1.673.897 1.846 1.814l.529 2.843c.096.5.826.5.913 0l.529-2.843a2.284 2.284 0 011.845-1.814l2.894-.519c.51-.095.51-.813 0-.898l-2.894-.519a2.284 2.284 0 01-1.845-1.814l-.53-2.843c-.095-.5-.826-.5-.912 0z" fill="url(#paint6_linear_59_8353)"/><path d="M302.539 243.25l-.39 1.896c-.128.617-.673 1.095-1.36 1.209l-2.132.346c-.376.063-.376.541 0 .598l2.132.346c.694.114 1.232.599 1.36 1.209l.39 1.896c.07.333.609.333.672 0l.39-1.896c.128-.617.673-1.095 1.36-1.209l2.132-.346c.376-.063.376-.541 0-.598l-2.132-.346c-.694-.114-1.232-.599-1.36-1.209l-.39-1.896c-.07-.333-.609-.333-.672 0z" fill="url(#paint7_linear_59_8353)"/><path d="M124.682 266.62l-.864 4.698a3.754 3.754 0 01-3.018 2.997l-4.731.859c-.833.156-.833 1.342 0 1.482l4.731.859a3.755 3.755 0 013.018 2.997l.864 4.698c.157.827 1.352.827 1.493 0l.865-4.698a3.754 3.754 0 013.017-2.997l4.731-.859c.833-.156.833-1.342 0-1.482l-4.731-.859a3.754 3.754 0 01-3.017-2.997l-.865-4.698c-.157-.827-1.351-.827-1.493 0z" fill="url(#paint8_linear_59_8353)"/><path opacity=".6" d="M358.161 423.593l-.862 4.494c-.281 1.461-1.472 2.605-2.995 2.873l-4.686.827a.72.72 0 000 1.426l4.686.827c1.523.269 2.715 1.412 2.995 2.873l.862 4.494c.152.791 1.334.791 1.486 0l.863-4.494c.28-1.461 1.472-2.605 2.995-2.873l4.685-.827a.72.72 0 000-1.426l-4.685-.827c-1.523-.269-2.716-1.412-2.995-2.873l-.863-4.494c-.152-.791-1.334-.791-1.486 0z" fill="url(#paint9_linear_59_8353)"/><defs><linearGradient id="paint0_linear_59_8353" x1="943.326" y1="19.743" x2="929.883" y2="6.06" gradientUnits="userSpaceOnUse"><stop stop-color="#DF4329" stop-opacity=".9"/><stop offset=".786" stop-color="#A686F2"/></linearGradient><linearGradient id="paint1_linear_59_8353" x1="757.202" y1="39.075" x2="753.094" y2="34.453" gradientUnits="userSpaceOnUse"><stop stop-color="#DF4329" stop-opacity=".9"/><stop offset=".786" stop-color="#A686F2"/></linearGradient><linearGradient id="paint2_linear_59_8353" x1="864.501" y1="120.651" x2="849.076" y2="105.118" gradientUnits="userSpaceOnUse"><stop offset=".33" stop-color="#10AEAE" stop-opacity=".61"/><stop offset=".43" stop-color="#1CB3B1" stop-opacity=".66"/><stop offset=".63" stop-color="#3BC0B9" stop-opacity=".79"/><stop offset=".91" stop-color="#6FD7C6"/></linearGradient><linearGradient id="paint3_linear_59_8353" x1="1016.06" y1="84.988" x2="1001.1" y2="69.391" gradientUnits="userSpaceOnUse"><stop offset=".236" stop-color="#A686F2"/><stop offset=".39" stop-color="#A382F0" stop-opacity=".978"/><stop offset=".533" stop-color="#9A77EB" stop-opacity=".958"/><stop offset=".67" stop-color="#8A65E3" stop-opacity=".938"/><stop offset=".804" stop-color="#744AD7" stop-opacity=".919"/><stop offset=".935" stop-color="#5829C8" stop-opacity=".9"/></linearGradient><linearGradient id="paint4_linear_59_8353" x1="269.827" y1="461.57" x2="249.709" y2="440.595" gradientUnits="userSpaceOnUse"><stop offset=".236" stop-color="#A686F2"/><stop offset=".39" stop-color="#A382F0" stop-opacity=".978"/><stop offset=".533" stop-color="#9A77EB" stop-opacity=".958"/><stop offset=".67" stop-color="#8A65E3" stop-opacity=".938"/><stop offset=".804" stop-color="#744AD7" stop-opacity=".919"/><stop offset=".935" stop-color="#5829C8" stop-opacity=".9"/></linearGradient><linearGradient id="paint5_linear_59_8353" x1="706.78" y1="418.406" x2="696.971" y2="408.596" gradientUnits="userSpaceOnUse"><stop offset=".236" stop-color="#A686F2"/><stop offset=".39" stop-color="#A382F0" stop-opacity=".978"/><stop offset=".533" stop-color="#9A77EB" stop-opacity=".958"/><stop offset=".67" stop-color="#8A65E3" stop-opacity=".938"/><stop offset=".804" stop-color="#744AD7" stop-opacity=".919"/><stop offset=".935" stop-color="#5829C8" stop-opacity=".9"/></linearGradient><linearGradient id="paint6_linear_59_8353" x1="9.89" y1="228.112" x2="3.686" y2="221.797" gradientUnits="userSpaceOnUse"><stop stop-color="#DF4329" stop-opacity=".9"/><stop offset=".786" stop-color="#A686F2"/></linearGradient><linearGradient id="paint7_linear_59_8353" x1="305.202" y1="249.075" x2="301.094" y2="244.453" gradientUnits="userSpaceOnUse"><stop stop-color="#DF4329" stop-opacity=".9"/><stop offset=".786" stop-color="#A686F2"/></linearGradient><linearGradient id="paint8_linear_59_8353" x1="130.592" y1="281.058" x2="120.338" y2="270.732" gradientUnits="userSpaceOnUse"><stop offset=".33" stop-color="#10AEAE" stop-opacity=".61"/><stop offset=".43" stop-color="#1CB3B1" stop-opacity=".66"/><stop offset=".63" stop-color="#3BC0B9" stop-opacity=".79"/><stop offset=".91" stop-color="#6FD7C6"/></linearGradient><linearGradient id="paint9_linear_59_8353" x1="364.018" y1="437.406" x2="354.217" y2="427.188" gradientUnits="userSpaceOnUse"><stop offset=".236" stop-color="#A686F2"/><stop offset=".39" stop-color="#A382F0" stop-opacity=".978"/><stop offset=".533" stop-color="#9A77EB" stop-opacity=".958"/><stop offset=".67" stop-color="#8A65E3" stop-opacity=".938"/><stop offset=".804" stop-color="#744AD7" stop-opacity=".919"/><stop offset=".935" stop-color="#5829C8" stop-opacity=".9"/></linearGradient></defs></svg>
