<svg width="150" height="139" fill="none" xmlns="http://www.w3.org/2000/svg"><path d="M146.509 45.863l-.282 1.49a1.206 1.206 0 01-.981.95l-1.54.272c-.271.05-.271.425 0 .47l1.54.272c.501.09.889.47.981.95l.282 1.49c.051.262.439.262.485 0l.282-1.49c.092-.485.485-.86.981-.95l1.54-.272c.271-.05.271-.426 0-.47l-1.54-.272a1.206 1.206 0 01-.981-.95l-.282-1.49c-.051-.262-.439-.262-.485 0z" fill="url(#paint0_linear_108_1245)"/><path d="M30.24 37.063C13.388 55.13 14.343 83.566 32.374 100.45c18.032 16.885 46.41 15.921 63.261-2.139L30.24 37.062z" fill="url(#paint1_linear_108_1245)"/><path opacity=".7" d="M36.64 111.026c20.448 11.73 47.047 8.871 64.497-8.579 20.87-20.87 20.87-54.827 0-75.697-10.435-10.434-24.142-15.652-37.848-15.652" stroke="url(#paint2_linear_108_1245)" stroke-width="11.033" stroke-miterlimit="10" stroke-dasharray="1.32 2.65"/><path d="M62.86 97.86c-18.305 0-33.145-14.838-33.145-33.144 0-18.305 14.84-33.144 33.145-33.144 18.305 0 33.144 14.84 33.144 33.144 0 18.306-14.84 33.145-33.144 33.145z" fill="#2B2838"/><path d="M15.648 6.037l-.43 2.338a1.869 1.869 0 01-1.502 1.492l-2.355.427c-.415.078-.415.669 0 .739l2.355.427c.767.14 1.361.738 1.502 1.492l.43 2.338c.079.412.673.412.744 0l.43-2.338a1.869 1.869 0 011.502-1.492l2.355-.428c.415-.077.415-.668 0-.738l-2.355-.427a1.869 1.869 0 01-1.502-1.492l-.43-2.338c-.079-.412-.673-.412-.744 0z" fill="url(#paint3_linear_108_1245)"/><path d="M62.611 97.86c-18.305 0-33.144-14.838-33.144-33.144 0-18.305 14.839-33.144 33.144-33.144s33.145 14.84 33.145 33.144c0 18.306-14.84 33.145-33.145 33.145z" stroke="url(#paint4_linear_108_1245)" stroke-width=".662" stroke-miterlimit="10"/><path d="M78.144 62.053l-4.247-11.114s-.207-.412-.415-.515c-.207-.103-.414-.206-.621-.206-.207 0-.414 0-.621.206-.208.103-.311.31-.415.618l-2.9 8.747H57.324l-2.9-8.747s-.208-.412-.415-.618c-.207-.103-.414-.206-.621-.206-.207 0-.518 0-.622.206-.207.103-.31.31-.414.515l-4.247 11.01c-1.243 3.397-.207 7.101 2.59 9.16l6.422 4.836 3.21 2.366 1.969 1.441s1.14.309 1.553 0l1.968-1.44 3.212-2.367 6.525-4.837c2.797-2.16 3.833-5.763 2.59-9.056z" fill="#fff"/><path opacity=".6" d="M21.076 118.209l-.586 3.053c-.19.992-1 1.769-2.034 1.951l-3.183.562a.489.489 0 000 .968l3.183.562c1.034.183 1.845.96 2.034 1.952l.586 3.052c.103.537.906.537 1.01 0l.585-3.052c.191-.992 1-1.77 2.035-1.952l3.182-.562a.489.489 0 000-.968l-3.182-.562c-1.034-.183-1.845-.959-2.035-1.951l-.585-3.053c-.104-.537-.907-.537-1.01 0z" fill="url(#paint5_linear_108_1245)"/><defs><linearGradient id="paint0_linear_108_1245" x1="148.431" y1="50.441" x2="145.182" y2="47.083" gradientUnits="userSpaceOnUse"><stop stop-color="#DF4329" stop-opacity=".9"/><stop offset=".786" stop-color="#A686F2"/></linearGradient><linearGradient id="paint1_linear_108_1245" x1="79.296" y1="114.715" x2="15.892" y2="51.439" gradientUnits="userSpaceOnUse"><stop stop-color="#7759BF" stop-opacity="0"/><stop offset=".14" stop-color="#8263CB" stop-opacity=".12"/><stop offset=".42" stop-color="#9576E0" stop-opacity=".32"/><stop offset=".62" stop-color="#A181ED" stop-opacity=".45"/><stop offset=".74" stop-color="#A686F2" stop-opacity=".5"/></linearGradient><linearGradient id="paint2_linear_108_1245" x1="29.075" y1="111.064" x2="111.201" y2="28.938" gradientUnits="userSpaceOnUse"><stop offset=".325" stop-color="#10AEAE" stop-opacity=".61"/><stop offset=".91" stop-color="#6FD7C6"/></linearGradient><linearGradient id="paint3_linear_108_1245" x1="18.59" y1="13.223" x2="13.486" y2="8.083" gradientUnits="userSpaceOnUse"><stop offset=".33" stop-color="#10AEAE" stop-opacity=".61"/><stop offset=".43" stop-color="#1CB3B1" stop-opacity=".66"/><stop offset=".63" stop-color="#3BC0B9" stop-opacity=".79"/><stop offset=".91" stop-color="#6FD7C6"/></linearGradient><linearGradient id="paint4_linear_108_1245" x1="62.258" y1="31.437" x2="62.258" y2="97.477" gradientUnits="userSpaceOnUse"><stop stop-color="#A686F2"/><stop offset=".854" stop-color="#5829C8"/></linearGradient><linearGradient id="paint5_linear_108_1245" x1="25.055" y1="127.591" x2="18.397" y2="120.651" gradientUnits="userSpaceOnUse"><stop offset=".236" stop-color="#A686F2"/><stop offset=".39" stop-color="#A382F0" stop-opacity=".978"/><stop offset=".533" stop-color="#9A77EB" stop-opacity=".958"/><stop offset=".67" stop-color="#8A65E3" stop-opacity=".938"/><stop offset=".804" stop-color="#744AD7" stop-opacity=".919"/><stop offset=".935" stop-color="#5829C8" stop-opacity=".9"/></linearGradient></defs></svg>
