<svg width="368" height="120" viewBox="0 0 368 120" fill="none" xmlns="http://www.w3.org/2000/svg">
<g clip-path="url(#clip0_231_7750)">
<ellipse cx="234.704" cy="-69.5" rx="134.318" ry="131.5" fill="url(#paint0_radial_231_7750)"/>
<ellipse cx="-1.24643" cy="-124.5" rx="202.754" ry="198.5" fill="url(#paint1_radial_231_7750)"/>
<ellipse cx="357.275" cy="-34.5" rx="124.104" ry="121.5" fill="url(#paint2_radial_231_7750)"/>
<g filter="url(#filter0_b_231_7750)">
<path d="M0 4C0 1.79086 1.79086 0 4 0H364C366.209 0 368 1.79086 368 4V133H0V4Z" fill="white" fill-opacity="0.01"/>
</g>
<path d="M280.102 41.1429C270.402 51.5426 270.952 67.91 281.33 77.6292C291.709 87.3485 308.044 86.7933 317.743 76.3981L280.102 41.1429Z" fill="url(#paint3_linear_231_7750)"/>
<path opacity="0.7" d="M284.233 83.9068C296.003 90.6586 311.313 89.0128 321.357 78.9686C333.37 66.956 333.37 47.4102 321.357 35.3976C315.351 29.3913 307.461 26.3883 299.572 26.3879" stroke="url(#paint4_linear_231_7750)" stroke-width="8" stroke-miterlimit="10" stroke-dasharray="2 4"/>
<path d="M299.325 76.3289C288.789 76.3289 280.247 67.7874 280.247 57.2509C280.247 46.7145 288.789 38.173 299.325 38.173C309.862 38.173 318.403 46.7145 318.403 57.2509C318.403 67.7874 309.862 76.3289 299.325 76.3289Z" fill="#2B2838"/>
<path d="M272.15 23.4749L271.902 24.821C271.821 25.2593 271.475 25.5991 271.038 25.6796L269.682 25.9256C269.444 25.9703 269.444 26.3102 269.682 26.3504L271.038 26.5964C271.479 26.6769 271.821 27.0213 271.902 27.4551L272.15 28.8012C272.195 29.0382 272.537 29.0382 272.578 28.8012L272.826 27.4551C272.907 27.0168 273.254 26.6769 273.69 26.5964L275.046 26.3504C275.285 26.3057 275.285 25.9658 275.046 25.9256L273.69 25.6796C273.249 25.5991 272.907 25.2548 272.826 24.821L272.578 23.4749C272.533 23.2379 272.191 23.2379 272.15 23.4749Z" fill="url(#paint5_linear_231_7750)"/>
<path d="M299.182 76.3289C288.646 76.3289 280.104 67.7874 280.104 57.2509C280.104 46.7145 288.646 38.173 299.182 38.173C309.719 38.173 318.26 46.7145 318.26 57.2509C318.26 67.7874 309.719 76.3289 299.182 76.3289Z" stroke="url(#paint6_linear_231_7750)" stroke-width="2" stroke-miterlimit="10"/>
<path d="M308.123 55.7177L305.678 49.3206C305.678 49.3206 305.559 49.0837 305.44 49.0245C305.32 48.9652 305.201 48.906 305.082 48.906C304.963 48.906 304.843 48.906 304.724 49.0245C304.605 49.0837 304.545 49.2022 304.486 49.3799L302.816 54.4146H296.139L294.469 49.3799C294.469 49.3799 294.35 49.1429 294.231 49.0245C294.111 48.9652 293.992 48.906 293.873 48.906C293.754 48.906 293.575 48.906 293.515 49.0245C293.396 49.0837 293.336 49.2022 293.277 49.3206L290.832 55.6584C290.117 57.6131 290.713 59.7454 292.323 60.9301L296.019 63.714L297.868 65.0763L299 65.9056C299 65.9056 299.656 66.0833 299.895 65.9056L301.028 65.0763L302.876 63.714L306.632 60.9301C308.242 59.6862 308.838 57.6131 308.123 55.7177V55.7177Z" fill="white"/>
<path opacity="0.6" d="M275.274 88.0414L274.937 89.7984C274.828 90.3696 274.362 90.8169 273.766 90.9217L271.934 91.2452C271.612 91.3021 271.612 91.7455 271.934 91.8024L273.766 92.1259C274.362 92.2311 274.828 92.678 274.937 93.2492L275.274 95.0062C275.334 95.3154 275.796 95.3154 275.855 95.0062L276.193 93.2492C276.302 92.678 276.768 92.2307 277.364 92.1259L279.196 91.8024C279.518 91.7455 279.518 91.3021 279.196 91.2452L277.364 90.9217C276.768 90.8165 276.302 90.3696 276.193 89.7984L275.855 88.0414C275.796 87.7322 275.334 87.7322 275.274 88.0414Z" fill="url(#paint7_linear_231_7750)"/>
</g>
<defs>
<filter id="filter0_b_231_7750" x="-50" y="-50" width="468" height="233" filterUnits="userSpaceOnUse" color-interpolation-filters="sRGB">
<feFlood flood-opacity="0" result="BackgroundImageFix"/>
<feGaussianBlur in="BackgroundImageFix" stdDeviation="25"/>
<feComposite in2="SourceAlpha" operator="in" result="effect1_backgroundBlur_231_7750"/>
<feBlend mode="normal" in="SourceGraphic" in2="effect1_backgroundBlur_231_7750" result="shape"/>
</filter>
<radialGradient id="paint0_radial_231_7750" cx="0" cy="0" r="1" gradientUnits="userSpaceOnUse" gradientTransform="translate(234.704 -69.5) rotate(89.5728) scale(125.986 128.685)">
<stop stop-color="#7759C2"/>
<stop offset="1" stop-color="#7759C2" stop-opacity="0"/>
</radialGradient>
<radialGradient id="paint1_radial_231_7750" cx="0" cy="0" r="1" gradientUnits="userSpaceOnUse" gradientTransform="translate(-1.24645 -124.5) rotate(89.5728) scale(190.177 194.251)">
<stop stop-color="#D64028"/>
<stop offset="1" stop-color="#D64028" stop-opacity="0"/>
</radialGradient>
<radialGradient id="paint2_radial_231_7750" cx="0" cy="0" r="1" gradientUnits="userSpaceOnUse" gradientTransform="translate(357.275 -34.5) rotate(89.5728) scale(116.405 118.899)">
<stop stop-color="#EF76F1"/>
<stop offset="1" stop-color="#EF76F1" stop-opacity="0"/>
</radialGradient>
<linearGradient id="paint3_linear_231_7750" x1="308.338" y1="85.8398" x2="271.843" y2="49.418" gradientUnits="userSpaceOnUse">
<stop stop-color="#7759BF" stop-opacity="0"/>
<stop offset="0.14" stop-color="#8263CB" stop-opacity="0.12"/>
<stop offset="0.42" stop-color="#9576E0" stop-opacity="0.32"/>
<stop offset="0.62" stop-color="#A181ED" stop-opacity="0.45"/>
<stop offset="0.74" stop-color="#A686F2" stop-opacity="0.5"/>
</linearGradient>
<linearGradient id="paint4_linear_231_7750" x1="279.878" y1="83.9284" x2="327.15" y2="36.6565" gradientUnits="userSpaceOnUse">
<stop offset="0.325" stop-color="#10AEAE" stop-opacity="0.61"/>
<stop offset="0.9096" stop-color="#6FD7C6"/>
</linearGradient>
<linearGradient id="paint5_linear_231_7750" x1="273.843" y1="27.6116" x2="270.905" y2="24.6529" gradientUnits="userSpaceOnUse">
<stop offset="0.33" stop-color="#10AEAE" stop-opacity="0.61"/>
<stop offset="0.43" stop-color="#1CB3B1" stop-opacity="0.66"/>
<stop offset="0.63" stop-color="#3BC0B9" stop-opacity="0.79"/>
<stop offset="0.91" stop-color="#6FD7C6"/>
</linearGradient>
<linearGradient id="paint6_linear_231_7750" x1="298.979" y1="38.0952" x2="298.979" y2="76.108" gradientUnits="userSpaceOnUse">
<stop stop-color="#A686F2"/>
<stop offset="0.854167" stop-color="#5829C8"/>
</linearGradient>
<linearGradient id="paint7_linear_231_7750" x1="277.564" y1="93.4418" x2="273.732" y2="89.4467" gradientUnits="userSpaceOnUse">
<stop offset="0.2358" stop-color="#A686F2"/>
<stop offset="0.3904" stop-color="#A382F0" stop-opacity="0.9779"/>
<stop offset="0.5326" stop-color="#9A77EB" stop-opacity="0.9575"/>
<stop offset="0.67" stop-color="#8A65E3" stop-opacity="0.9379"/>
<stop offset="0.8036" stop-color="#744AD7" stop-opacity="0.9188"/>
<stop offset="0.9349" stop-color="#5829C8" stop-opacity="0.9"/>
</linearGradient>
<clipPath id="clip0_231_7750">
<path d="M0 4C0 1.79086 1.79086 0 4 0H364C366.209 0 368 1.79086 368 4V120H0V4Z" fill="white"/>
</clipPath>
</defs>
</svg>
